<?xml version="1.0" encoding="UTF-8" standalone="no"?>
<!DOCTYPE svg PUBLIC "-//W3C//DTD SVG 1.1//EN"
 "http://www.w3.org/Graphics/SVG/1.1/DTD/svg11.dtd">
<!-- Generated by graphviz version 5.0.0 (20220707.1540)
 -->
<!-- Title: dependencies Pages: 1 -->
<svg width="2114pt" height="247pt"
 viewBox="0.00 0.00 2114.00 246.80" xmlns="http://www.w3.org/2000/svg" xmlns:xlink="http://www.w3.org/1999/xlink">
<g id="graph0" class="graph" transform="scale(1 1) rotate(0) translate(4 242.8)">
<title>dependencies</title>
<polygon fill="white" stroke="transparent" points="-4,4 -4,-242.8 2110,-242.8 2110,4 -4,4"/>
<text text-anchor="middle" x="1053" y="-8.2" font-family="sans-serif" font-size="14.00">dependencies</text>
<g id="clust1" class="cluster">
<title>cluster_AppModule</title>
<polygon fill="none" stroke="black" stroke-dasharray="1,5" points="8,-32.8 8,-230.8 2098,-230.8 2098,-32.8 8,-32.8"/>
</g>
<g id="clust14" class="cluster">
<title>cluster_AppModule_imports</title>
<polygon fill="none" stroke="black" points="1829,-40.8 1829,-92.8 2090,-92.8 2090,-40.8 1829,-40.8"/>
</g>
<g id="clust16" class="cluster">
<title>cluster_AppModule_bootstrap</title>
<polygon fill="none" stroke="black" points="1026,-170.8 1026,-222.8 1150,-222.8 1150,-170.8 1026,-170.8"/>
</g>
<g id="clust17" class="cluster">
<title>cluster_AppModule_providers</title>
<polygon fill="none" stroke="black" points="1657,-40.8 1657,-92.8 1821,-92.8 1821,-40.8 1657,-40.8"/>
</g>
<g id="clust2" class="cluster">
<title>cluster_AppModule_declarations</title>
<polygon fill="none" stroke="black" points="16,-40.8 16,-92.8 1649,-92.8 1649,-40.8 16,-40.8"/>
</g>
<!-- AppComponent -->
<g id="node1" class="node">
<title>AppComponent</title>
<polygon fill="#ffffb3" stroke="black" points="1640.94,-84.8 1535.06,-84.8 1535.06,-48.8 1640.94,-48.8 1640.94,-84.8"/>
<text text-anchor="middle" x="1588" y="-62.6" font-family="Times,serif" font-size="14.00">AppComponent</text>
</g>
<!-- AppModule -->
<g id="node12" class="node">
<title>AppModule</title>
<polygon fill="#8dd3c7" stroke="black" points="1129.66,-149.8 1126.66,-153.8 1105.66,-153.8 1102.66,-149.8 1046.34,-149.8 1046.34,-113.8 1129.66,-113.8 1129.66,-149.8"/>
<text text-anchor="middle" x="1088" y="-127.6" font-family="Times,serif" font-size="14.00">AppModule</text>
</g>
<!-- AppComponent&#45;&gt;AppModule -->
<g id="edge1" class="edge">
<title>AppComponent&#45;&gt;AppModule</title>
<path fill="none" stroke="black" d="M1588,-85.02C1588,-103.63 1588,-129.8 1588,-129.8 1588,-129.8 1139.77,-129.8 1139.77,-129.8"/>
<polygon fill="black" stroke="black" points="1139.77,-126.3 1129.77,-129.8 1139.77,-133.3 1139.77,-126.3"/>
</g>
<!-- HomeComponent -->
<g id="node2" class="node">
<title>HomeComponent</title>
<polygon fill="#ffffb3" stroke="black" points="1517.55,-84.8 1402.45,-84.8 1402.45,-48.8 1517.55,-48.8 1517.55,-84.8"/>
<text text-anchor="middle" x="1460" y="-62.6" font-family="Times,serif" font-size="14.00">HomeComponent</text>
</g>
<!-- HomeComponent&#45;&gt;AppModule -->
<g id="edge2" class="edge">
<title>HomeComponent&#45;&gt;AppModule</title>
<path fill="none" stroke="black" d="M1460,-84.83C1460,-101.86 1460,-124.8 1460,-124.8 1460,-124.8 1139.95,-124.8 1139.95,-124.8"/>
<polygon fill="black" stroke="black" points="1139.95,-121.3 1129.95,-124.8 1139.95,-128.3 1139.95,-121.3"/>
</g>
<!-- ListsComponent -->
<g id="node3" class="node">
<title>ListsComponent</title>
<polygon fill="#ffffb3" stroke="black" points="1384.06,-84.8 1275.94,-84.8 1275.94,-48.8 1384.06,-48.8 1384.06,-84.8"/>
<text text-anchor="middle" x="1330" y="-62.6" font-family="Times,serif" font-size="14.00">ListsComponent</text>
</g>
<!-- ListsComponent&#45;&gt;AppModule -->
<g id="edge3" class="edge">
<title>ListsComponent&#45;&gt;AppModule</title>
<path fill="none" stroke="black" d="M1330,-85.04C1330,-100.37 1330,-119.8 1330,-119.8 1330,-119.8 1139.88,-119.8 1139.88,-119.8"/>
<polygon fill="black" stroke="black" points="1139.88,-116.3 1129.88,-119.8 1139.88,-123.3 1139.88,-116.3"/>
</g>
<!-- MemberDetailComponent -->
<g id="node4" class="node">
<title>MemberDetailComponent</title>
<polygon fill="#ffffb3" stroke="black" points="1257.47,-84.8 1094.53,-84.8 1094.53,-48.8 1257.47,-48.8 1257.47,-84.8"/>
<text text-anchor="middle" x="1176" y="-62.6" font-family="Times,serif" font-size="14.00">MemberDetailComponent</text>
</g>
<!-- MemberDetailComponent&#45;&gt;AppModule -->
<g id="edge4" class="edge">
<title>MemberDetailComponent&#45;&gt;AppModule</title>
<path fill="none" stroke="black" d="M1112.17,-84.91C1112.17,-84.91 1112.17,-103.79 1112.17,-103.79"/>
<polygon fill="black" stroke="black" points="1108.67,-103.79 1112.17,-113.79 1115.67,-103.79 1108.67,-103.79"/>
</g>
<!-- MemberListComponent -->
<g id="node5" class="node">
<title>MemberListComponent</title>
<polygon fill="#ffffb3" stroke="black" points="1076.04,-84.8 925.96,-84.8 925.96,-48.8 1076.04,-48.8 1076.04,-84.8"/>
<text text-anchor="middle" x="1001" y="-62.6" font-family="Times,serif" font-size="14.00">MemberListComponent</text>
</g>
<!-- MemberListComponent&#45;&gt;AppModule -->
<g id="edge5" class="edge">
<title>MemberListComponent&#45;&gt;AppModule</title>
<path fill="none" stroke="black" d="M1061.22,-84.91C1061.22,-84.91 1061.22,-103.79 1061.22,-103.79"/>
<polygon fill="black" stroke="black" points="1057.72,-103.79 1061.22,-113.79 1064.72,-103.79 1057.72,-103.79"/>
</g>
<!-- MessagesComponent -->
<g id="node6" class="node">
<title>MessagesComponent</title>
<polygon fill="#ffffb3" stroke="black" points="907.77,-84.8 772.23,-84.8 772.23,-48.8 907.77,-48.8 907.77,-84.8"/>
<text text-anchor="middle" x="840" y="-62.6" font-family="Times,serif" font-size="14.00">MessagesComponent</text>
</g>
<!-- MessagesComponent&#45;&gt;AppModule -->
<g id="edge6" class="edge">
<title>MessagesComponent&#45;&gt;AppModule</title>
<path fill="none" stroke="black" d="M840,-85.04C840,-100.37 840,-119.8 840,-119.8 840,-119.8 1036.21,-119.8 1036.21,-119.8"/>
<polygon fill="black" stroke="black" points="1036.21,-123.3 1046.21,-119.8 1036.21,-116.3 1036.21,-123.3"/>
</g>
<!-- NavComponent -->
<g id="node7" class="node">
<title>NavComponent</title>
<polygon fill="#ffffb3" stroke="black" points="754.16,-84.8 649.84,-84.8 649.84,-48.8 754.16,-48.8 754.16,-84.8"/>
<text text-anchor="middle" x="702" y="-62.6" font-family="Times,serif" font-size="14.00">NavComponent</text>
</g>
<!-- NavComponent&#45;&gt;AppModule -->
<g id="edge7" class="edge">
<title>NavComponent&#45;&gt;AppModule</title>
<path fill="none" stroke="black" d="M702,-84.83C702,-101.86 702,-124.8 702,-124.8 702,-124.8 1036.32,-124.8 1036.32,-124.8"/>
<polygon fill="black" stroke="black" points="1036.32,-128.3 1046.32,-124.8 1036.32,-121.3 1036.32,-128.3"/>
</g>
<!-- NotFoundComponent -->
<g id="node8" class="node">
<title>NotFoundComponent</title>
<polygon fill="#ffffb3" stroke="black" points="632.12,-84.8 493.88,-84.8 493.88,-48.8 632.12,-48.8 632.12,-84.8"/>
<text text-anchor="middle" x="563" y="-62.6" font-family="Times,serif" font-size="14.00">NotFoundComponent</text>
</g>
<!-- NotFoundComponent&#45;&gt;AppModule -->
<g id="edge8" class="edge">
<title>NotFoundComponent&#45;&gt;AppModule</title>
<path fill="none" stroke="black" d="M563,-85.02C563,-103.63 563,-129.8 563,-129.8 563,-129.8 1035.92,-129.8 1035.92,-129.8"/>
<polygon fill="black" stroke="black" points="1035.92,-133.3 1045.92,-129.8 1035.92,-126.3 1035.92,-133.3"/>
</g>
<!-- RegisterComponent -->
<g id="node9" class="node">
<title>RegisterComponent</title>
<polygon fill="#ffffb3" stroke="black" points="475.99,-84.8 348.01,-84.8 348.01,-48.8 475.99,-48.8 475.99,-84.8"/>
<text text-anchor="middle" x="412" y="-62.6" font-family="Times,serif" font-size="14.00">RegisterComponent</text>
</g>
<!-- RegisterComponent&#45;&gt;AppModule -->
<g id="edge9" class="edge">
<title>RegisterComponent&#45;&gt;AppModule</title>
<path fill="none" stroke="black" d="M412,-85.02C412,-105.17 412,-134.8 412,-134.8 412,-134.8 1036.22,-134.8 1036.22,-134.8"/>
<polygon fill="black" stroke="black" points="1036.22,-138.3 1046.22,-134.8 1036.22,-131.3 1036.22,-138.3"/>
</g>
<!-- ServerErrorComponent -->
<g id="node10" class="node">
<title>ServerErrorComponent</title>
<polygon fill="#ffffb3" stroke="black" points="329.91,-84.8 182.09,-84.8 182.09,-48.8 329.91,-48.8 329.91,-84.8"/>
<text text-anchor="middle" x="256" y="-62.6" font-family="Times,serif" font-size="14.00">ServerErrorComponent</text>
</g>
<!-- ServerErrorComponent&#45;&gt;AppModule -->
<g id="edge10" class="edge">
<title>ServerErrorComponent&#45;&gt;AppModule</title>
<path fill="none" stroke="black" d="M256,-84.84C256,-106.46 256,-139.8 256,-139.8 256,-139.8 1036.17,-139.8 1036.17,-139.8"/>
<polygon fill="black" stroke="black" points="1036.17,-143.3 1046.17,-139.8 1036.17,-136.3 1036.17,-143.3"/>
</g>
<!-- TestErrorsComponent -->
<g id="node11" class="node">
<title>TestErrorsComponent</title>
<polygon fill="#ffffb3" stroke="black" points="164.42,-84.8 23.58,-84.8 23.58,-48.8 164.42,-48.8 164.42,-84.8"/>
<text text-anchor="middle" x="94" y="-62.6" font-family="Times,serif" font-size="14.00">TestErrorsComponent</text>
</g>
<!-- TestErrorsComponent&#45;&gt;AppModule -->
<g id="edge11" class="edge">
<title>TestErrorsComponent&#45;&gt;AppModule</title>
<path fill="none" stroke="black" d="M94,-84.89C94,-107.93 94,-144.8 94,-144.8 94,-144.8 1036.24,-144.8 1036.24,-144.8"/>
<polygon fill="black" stroke="black" points="1036.24,-148.3 1046.24,-144.8 1036.24,-141.3 1036.24,-148.3"/>
</g>
<!-- AppComponent  -->
<g id="node15" class="node">
<title>AppComponent </title>
<polygon fill="#80b1d3" stroke="black" points="1142.44,-214.8 1033.56,-214.8 1033.56,-178.8 1142.44,-178.8 1142.44,-214.8"/>
<text text-anchor="middle" x="1088" y="-192.6" font-family="Times,serif" font-size="14.00">AppComponent </text>
</g>
<!-- AppModule&#45;&gt;AppComponent  -->
<g id="edge14" class="edge">
<title>AppModule&#45;&gt;AppComponent </title>
<path fill="none" stroke="black" stroke-dasharray="1,5" d="M1088,-149.91C1088,-149.91 1088,-168.79 1088,-168.79"/>
<polygon fill="black" stroke="black" points="1084.5,-168.79 1088,-178.79 1091.5,-168.79 1084.5,-168.79"/>
</g>
<!-- AppRoutingModule -->
<g id="node13" class="node">
<title>AppRoutingModule</title>
<polygon fill="#8dd3c7" stroke="black" points="2082.28,-84.8 2079.28,-88.8 2058.28,-88.8 2055.28,-84.8 1953.72,-84.8 1953.72,-48.8 2082.28,-48.8 2082.28,-84.8"/>
<text text-anchor="middle" x="2018" y="-62.6" font-family="Times,serif" font-size="14.00">AppRoutingModule</text>
</g>
<!-- AppRoutingModule&#45;&gt;AppModule -->
<g id="edge12" class="edge">
<title>AppRoutingModule&#45;&gt;AppModule</title>
<path fill="none" stroke="black" d="M2018,-84.89C2018,-107.93 2018,-144.8 2018,-144.8 2018,-144.8 1139.77,-144.8 1139.77,-144.8"/>
<polygon fill="black" stroke="black" points="1139.77,-141.3 1129.77,-144.8 1139.77,-148.3 1139.77,-141.3"/>
</g>
<!-- SharedModule -->
<g id="node14" class="node">
<title>SharedModule</title>
<polygon fill="#8dd3c7" stroke="black" points="1935.43,-84.8 1932.43,-88.8 1911.43,-88.8 1908.43,-84.8 1836.57,-84.8 1836.57,-48.8 1935.43,-48.8 1935.43,-84.8"/>
<text text-anchor="middle" x="1886" y="-62.6" font-family="Times,serif" font-size="14.00">SharedModule</text>
</g>
<!-- SharedModule&#45;&gt;AppModule -->
<g id="edge13" class="edge">
<title>SharedModule&#45;&gt;AppModule</title>
<path fill="none" stroke="black" d="M1886,-84.84C1886,-106.46 1886,-139.8 1886,-139.8 1886,-139.8 1139.78,-139.8 1139.78,-139.8"/>
<polygon fill="black" stroke="black" points="1139.78,-136.3 1129.78,-139.8 1139.78,-143.3 1139.78,-136.3"/>
</g>
<!-- ErrorInterceptor -->
<g id="node16" class="node">
<title>ErrorInterceptor</title>
<ellipse fill="#fdb462" stroke="black" cx="1739" cy="-66.8" rx="73.54" ry="18"/>
<text text-anchor="middle" x="1739" y="-62.6" font-family="Times,serif" font-size="14.00">ErrorInterceptor</text>
</g>
<!-- ErrorInterceptor&#45;&gt;AppModule -->
<g id="edge15" class="edge">
<title>ErrorInterceptor&#45;&gt;AppModule</title>
<path fill="none" stroke="black" d="M1739,-85.02C1739,-105.17 1739,-134.8 1739,-134.8 1739,-134.8 1139.71,-134.8 1139.71,-134.8"/>
<polygon fill="black" stroke="black" points="1139.71,-131.3 1129.71,-134.8 1139.71,-138.3 1139.71,-131.3"/>
</g>
</g>
</svg>
