<?xml version="1.0" encoding="UTF-8" standalone="no"?>
<!DOCTYPE svg PUBLIC "-//W3C//DTD SVG 1.1//EN"
 "http://www.w3.org/Graphics/SVG/1.1/DTD/svg11.dtd">
<!-- Generated by graphviz version 5.0.0 (20220707.1540)
 -->
<!-- Title: dependencies Pages: 1 -->
<svg width="1462pt" height="247pt"
 viewBox="0.00 0.00 1462.00 246.80" xmlns="http://www.w3.org/2000/svg" xmlns:xlink="http://www.w3.org/1999/xlink">
<g id="graph0" class="graph" transform="scale(1 1) rotate(0) translate(4 242.8)">
<title>dependencies</title>
<polygon fill="white" stroke="transparent" points="-4,4 -4,-242.8 1458,-242.8 1458,4 -4,4"/>
<text text-anchor="middle" x="727" y="-8.2" font-family="sans-serif" font-size="14.00">dependencies</text>
<g id="clust1" class="cluster">
<title>cluster_AppModule</title>
<polygon fill="none" stroke="black" stroke-dasharray="1,5" points="8,-32.8 8,-230.8 1446,-230.8 1446,-32.8 8,-32.8"/>
</g>
<g id="clust13" class="cluster">
<title>cluster_AppModule_bootstrap</title>
<polygon fill="none" stroke="black" points="711,-170.8 711,-222.8 835,-222.8 835,-170.8 711,-170.8"/>
</g>
<g id="clust11" class="cluster">
<title>cluster_AppModule_imports</title>
<polygon fill="none" stroke="black" points="1177,-40.8 1177,-92.8 1438,-92.8 1438,-40.8 1177,-40.8"/>
</g>
<g id="clust2" class="cluster">
<title>cluster_AppModule_declarations</title>
<polygon fill="none" stroke="black" points="16,-40.8 16,-92.8 1169,-92.8 1169,-40.8 16,-40.8"/>
</g>
<!-- AppComponent -->
<g id="node1" class="node">
<title>AppComponent</title>
<polygon fill="#ffffb3" stroke="black" points="1160.94,-84.8 1055.06,-84.8 1055.06,-48.8 1160.94,-48.8 1160.94,-84.8"/>
<text text-anchor="middle" x="1108" y="-62.6" font-family="Times,serif" font-size="14.00">AppComponent</text>
</g>
<!-- AppModule -->
<g id="node9" class="node">
<title>AppModule</title>
<polygon fill="#8dd3c7" stroke="black" points="814.66,-149.8 811.66,-153.8 790.66,-153.8 787.66,-149.8 731.34,-149.8 731.34,-113.8 814.66,-113.8 814.66,-149.8"/>
<text text-anchor="middle" x="773" y="-127.6" font-family="Times,serif" font-size="14.00">AppModule</text>
</g>
<!-- AppComponent&#45;&gt;AppModule -->
<g id="edge1" class="edge">
<title>AppComponent&#45;&gt;AppModule</title>
<path fill="none" stroke="black" d="M1108,-85.07C1108,-103.36 1108,-128.8 1108,-128.8 1108,-128.8 824.75,-128.8 824.75,-128.8"/>
<polygon fill="black" stroke="black" points="824.75,-125.3 814.75,-128.8 824.75,-132.3 824.75,-125.3"/>
</g>
<!-- HomeComponent -->
<g id="node2" class="node">
<title>HomeComponent</title>
<polygon fill="#ffffb3" stroke="black" points="1037.55,-84.8 922.45,-84.8 922.45,-48.8 1037.55,-48.8 1037.55,-84.8"/>
<text text-anchor="middle" x="980" y="-62.6" font-family="Times,serif" font-size="14.00">HomeComponent</text>
</g>
<!-- HomeComponent&#45;&gt;AppModule -->
<g id="edge2" class="edge">
<title>HomeComponent&#45;&gt;AppModule</title>
<path fill="none" stroke="black" d="M980,-84.81C980,-100.85 980,-121.8 980,-121.8 980,-121.8 824.89,-121.8 824.89,-121.8"/>
<polygon fill="black" stroke="black" points="824.89,-118.3 814.89,-121.8 824.89,-125.3 824.89,-118.3"/>
</g>
<!-- ListsComponent -->
<g id="node3" class="node">
<title>ListsComponent</title>
<polygon fill="#ffffb3" stroke="black" points="904.06,-84.8 795.94,-84.8 795.94,-48.8 904.06,-48.8 904.06,-84.8"/>
<text text-anchor="middle" x="850" y="-62.6" font-family="Times,serif" font-size="14.00">ListsComponent</text>
</g>
<!-- ListsComponent&#45;&gt;AppModule -->
<g id="edge3" class="edge">
<title>ListsComponent&#45;&gt;AppModule</title>
<path fill="none" stroke="black" d="M805.28,-84.91C805.28,-84.91 805.28,-103.79 805.28,-103.79"/>
<polygon fill="black" stroke="black" points="801.78,-103.79 805.28,-113.79 808.78,-103.79 801.78,-103.79"/>
</g>
<!-- MemberDetailComponent -->
<g id="node4" class="node">
<title>MemberDetailComponent</title>
<polygon fill="#ffffb3" stroke="black" points="777.47,-84.8 614.53,-84.8 614.53,-48.8 777.47,-48.8 777.47,-84.8"/>
<text text-anchor="middle" x="696" y="-62.6" font-family="Times,serif" font-size="14.00">MemberDetailComponent</text>
</g>
<!-- MemberDetailComponent&#45;&gt;AppModule -->
<g id="edge4" class="edge">
<title>MemberDetailComponent&#45;&gt;AppModule</title>
<path fill="none" stroke="black" d="M754.33,-84.91C754.33,-84.91 754.33,-103.79 754.33,-103.79"/>
<polygon fill="black" stroke="black" points="750.83,-103.79 754.33,-113.79 757.83,-103.79 750.83,-103.79"/>
</g>
<!-- MemberListComponent -->
<g id="node5" class="node">
<title>MemberListComponent</title>
<polygon fill="#ffffb3" stroke="black" points="596.04,-84.8 445.96,-84.8 445.96,-48.8 596.04,-48.8 596.04,-84.8"/>
<text text-anchor="middle" x="521" y="-62.6" font-family="Times,serif" font-size="14.00">MemberListComponent</text>
</g>
<!-- MemberListComponent&#45;&gt;AppModule -->
<g id="edge5" class="edge">
<title>MemberListComponent&#45;&gt;AppModule</title>
<path fill="none" stroke="black" d="M521,-84.81C521,-100.85 521,-121.8 521,-121.8 521,-121.8 721.1,-121.8 721.1,-121.8"/>
<polygon fill="black" stroke="black" points="721.1,-125.3 731.1,-121.8 721.1,-118.3 721.1,-125.3"/>
</g>
<!-- MessagesComponent -->
<g id="node6" class="node">
<title>MessagesComponent</title>
<polygon fill="#ffffb3" stroke="black" points="427.77,-84.8 292.23,-84.8 292.23,-48.8 427.77,-48.8 427.77,-84.8"/>
<text text-anchor="middle" x="360" y="-62.6" font-family="Times,serif" font-size="14.00">MessagesComponent</text>
</g>
<!-- MessagesComponent&#45;&gt;AppModule -->
<g id="edge6" class="edge">
<title>MessagesComponent&#45;&gt;AppModule</title>
<path fill="none" stroke="black" d="M360,-85.07C360,-103.36 360,-128.8 360,-128.8 360,-128.8 721.13,-128.8 721.13,-128.8"/>
<polygon fill="black" stroke="black" points="721.13,-132.3 731.13,-128.8 721.13,-125.3 721.13,-132.3"/>
</g>
<!-- NavComponent -->
<g id="node7" class="node">
<title>NavComponent</title>
<polygon fill="#ffffb3" stroke="black" points="274.16,-84.8 169.84,-84.8 169.84,-48.8 274.16,-48.8 274.16,-84.8"/>
<text text-anchor="middle" x="222" y="-62.6" font-family="Times,serif" font-size="14.00">NavComponent</text>
</g>
<!-- NavComponent&#45;&gt;AppModule -->
<g id="edge7" class="edge">
<title>NavComponent&#45;&gt;AppModule</title>
<path fill="none" stroke="black" d="M222,-84.93C222,-105.37 222,-135.8 222,-135.8 222,-135.8 721.13,-135.8 721.13,-135.8"/>
<polygon fill="black" stroke="black" points="721.13,-139.3 731.13,-135.8 721.13,-132.3 721.13,-139.3"/>
</g>
<!-- RegisterComponent -->
<g id="node8" class="node">
<title>RegisterComponent</title>
<polygon fill="#ffffb3" stroke="black" points="151.99,-84.8 24.01,-84.8 24.01,-48.8 151.99,-48.8 151.99,-84.8"/>
<text text-anchor="middle" x="88" y="-62.6" font-family="Times,serif" font-size="14.00">RegisterComponent</text>
</g>
<!-- RegisterComponent&#45;&gt;AppModule -->
<g id="edge8" class="edge">
<title>RegisterComponent&#45;&gt;AppModule</title>
<path fill="none" stroke="black" d="M88,-84.81C88,-107.29 88,-142.8 88,-142.8 88,-142.8 721.18,-142.8 721.18,-142.8"/>
<polygon fill="black" stroke="black" points="721.18,-146.3 731.18,-142.8 721.18,-139.3 721.18,-146.3"/>
</g>
<!-- AppComponent  -->
<g id="node12" class="node">
<title>AppComponent </title>
<polygon fill="#80b1d3" stroke="black" points="827.44,-214.8 718.56,-214.8 718.56,-178.8 827.44,-178.8 827.44,-214.8"/>
<text text-anchor="middle" x="773" y="-192.6" font-family="Times,serif" font-size="14.00">AppComponent </text>
</g>
<!-- AppModule&#45;&gt;AppComponent  -->
<g id="edge11" class="edge">
<title>AppModule&#45;&gt;AppComponent </title>
<path fill="none" stroke="black" stroke-dasharray="1,5" d="M773,-149.91C773,-149.91 773,-168.79 773,-168.79"/>
<polygon fill="black" stroke="black" points="769.5,-168.79 773,-178.79 776.5,-168.79 769.5,-168.79"/>
</g>
<!-- AppRoutingModule -->
<g id="node10" class="node">
<title>AppRoutingModule</title>
<polygon fill="#8dd3c7" stroke="black" points="1430.28,-84.8 1427.28,-88.8 1406.28,-88.8 1403.28,-84.8 1301.72,-84.8 1301.72,-48.8 1430.28,-48.8 1430.28,-84.8"/>
<text text-anchor="middle" x="1366" y="-62.6" font-family="Times,serif" font-size="14.00">AppRoutingModule</text>
</g>
<!-- AppRoutingModule&#45;&gt;AppModule -->
<g id="edge9" class="edge">
<title>AppRoutingModule&#45;&gt;AppModule</title>
<path fill="none" stroke="black" d="M1366,-84.81C1366,-107.29 1366,-142.8 1366,-142.8 1366,-142.8 824.7,-142.8 824.7,-142.8"/>
<polygon fill="black" stroke="black" points="824.7,-139.3 814.7,-142.8 824.7,-146.3 824.7,-139.3"/>
</g>
<!-- SharedModule -->
<g id="node11" class="node">
<title>SharedModule</title>
<polygon fill="#8dd3c7" stroke="black" points="1283.43,-84.8 1280.43,-88.8 1259.43,-88.8 1256.43,-84.8 1184.57,-84.8 1184.57,-48.8 1283.43,-48.8 1283.43,-84.8"/>
<text text-anchor="middle" x="1234" y="-62.6" font-family="Times,serif" font-size="14.00">SharedModule</text>
</g>
<!-- SharedModule&#45;&gt;AppModule -->
<g id="edge10" class="edge">
<title>SharedModule&#45;&gt;AppModule</title>
<path fill="none" stroke="black" d="M1234,-84.93C1234,-105.37 1234,-135.8 1234,-135.8 1234,-135.8 824.72,-135.8 824.72,-135.8"/>
<polygon fill="black" stroke="black" points="824.72,-132.3 814.72,-135.8 824.72,-139.3 824.72,-132.3"/>
</g>
</g>
</svg>
