<?xml version="1.0" encoding="UTF-8" standalone="no"?>
<!DOCTYPE svg PUBLIC "-//W3C//DTD SVG 1.1//EN"
 "http://www.w3.org/Graphics/SVG/1.1/DTD/svg11.dtd">
<!-- Generated by graphviz version 5.0.0 (20220707.1540)
 -->
<!-- Title: dependencies Pages: 1 -->
<svg width="2114pt" height="247pt"
 viewBox="0.00 0.00 2114.00 246.80" xmlns="http://www.w3.org/2000/svg" xmlns:xlink="http://www.w3.org/1999/xlink">
<g id="graph0" class="graph" transform="scale(1 1) rotate(0) translate(4 242.8)">
<title>dependencies</title>
<polygon fill="white" stroke="transparent" points="-4,4 -4,-242.8 2110,-242.8 2110,4 -4,4"/>
<text text-anchor="middle" x="1053" y="-8.2" font-family="sans-serif" font-size="14.00">dependencies</text>
<g id="clust1" class="cluster">
<title>cluster_AppModule</title>
<polygon fill="none" stroke="black" stroke-dasharray="1,5" points="8,-32.8 8,-230.8 2098,-230.8 2098,-32.8 8,-32.8"/>
</g>
<g id="clust2" class="cluster">
<title>cluster_AppModule_declarations</title>
<polygon fill="none" stroke="black" points="457,-40.8 457,-92.8 2090,-92.8 2090,-40.8 457,-40.8"/>
</g>
<g id="clust14" class="cluster">
<title>cluster_AppModule_imports</title>
<polygon fill="none" stroke="black" points="188,-40.8 188,-92.8 449,-92.8 449,-40.8 188,-40.8"/>
</g>
<g id="clust16" class="cluster">
<title>cluster_AppModule_bootstrap</title>
<polygon fill="none" stroke="black" points="1011,-170.8 1011,-222.8 1135,-222.8 1135,-170.8 1011,-170.8"/>
</g>
<g id="clust17" class="cluster">
<title>cluster_AppModule_providers</title>
<polygon fill="none" stroke="black" points="16,-40.8 16,-92.8 180,-92.8 180,-40.8 16,-40.8"/>
</g>
<!-- AppComponent -->
<g id="node1" class="node">
<title>AppComponent</title>
<polygon fill="#ffffb3" stroke="black" points="2081.94,-84.8 1976.06,-84.8 1976.06,-48.8 2081.94,-48.8 2081.94,-84.8"/>
<text text-anchor="middle" x="2029" y="-62.6" font-family="Times,serif" font-size="14.00">AppComponent</text>
</g>
<!-- AppModule -->
<g id="node12" class="node">
<title>AppModule</title>
<polygon fill="#8dd3c7" stroke="black" points="1114.66,-149.8 1111.66,-153.8 1090.66,-153.8 1087.66,-149.8 1031.34,-149.8 1031.34,-113.8 1114.66,-113.8 1114.66,-149.8"/>
<text text-anchor="middle" x="1073" y="-127.6" font-family="Times,serif" font-size="14.00">AppModule</text>
</g>
<!-- AppComponent&#45;&gt;AppModule -->
<g id="edge1" class="edge">
<title>AppComponent&#45;&gt;AppModule</title>
<path fill="none" stroke="black" d="M2029,-84.89C2029,-107.93 2029,-144.8 2029,-144.8 2029,-144.8 1124.69,-144.8 1124.69,-144.8"/>
<polygon fill="black" stroke="black" points="1124.69,-141.3 1114.69,-144.8 1124.69,-148.3 1124.69,-141.3"/>
</g>
<!-- HomeComponent -->
<g id="node2" class="node">
<title>HomeComponent</title>
<polygon fill="#ffffb3" stroke="black" points="1958.55,-84.8 1843.45,-84.8 1843.45,-48.8 1958.55,-48.8 1958.55,-84.8"/>
<text text-anchor="middle" x="1901" y="-62.6" font-family="Times,serif" font-size="14.00">HomeComponent</text>
</g>
<!-- HomeComponent&#45;&gt;AppModule -->
<g id="edge2" class="edge">
<title>HomeComponent&#45;&gt;AppModule</title>
<path fill="none" stroke="black" d="M1901,-84.84C1901,-106.46 1901,-139.8 1901,-139.8 1901,-139.8 1124.91,-139.8 1124.91,-139.8"/>
<polygon fill="black" stroke="black" points="1124.91,-136.3 1114.91,-139.8 1124.91,-143.3 1124.91,-136.3"/>
</g>
<!-- ListsComponent -->
<g id="node3" class="node">
<title>ListsComponent</title>
<polygon fill="#ffffb3" stroke="black" points="1825.06,-84.8 1716.94,-84.8 1716.94,-48.8 1825.06,-48.8 1825.06,-84.8"/>
<text text-anchor="middle" x="1771" y="-62.6" font-family="Times,serif" font-size="14.00">ListsComponent</text>
</g>
<!-- ListsComponent&#45;&gt;AppModule -->
<g id="edge3" class="edge">
<title>ListsComponent&#45;&gt;AppModule</title>
<path fill="none" stroke="black" d="M1771,-85.02C1771,-105.17 1771,-134.8 1771,-134.8 1771,-134.8 1124.83,-134.8 1124.83,-134.8"/>
<polygon fill="black" stroke="black" points="1124.83,-131.3 1114.83,-134.8 1124.83,-138.3 1124.83,-131.3"/>
</g>
<!-- MemberDetailComponent -->
<g id="node4" class="node">
<title>MemberDetailComponent</title>
<polygon fill="#ffffb3" stroke="black" points="1698.47,-84.8 1535.53,-84.8 1535.53,-48.8 1698.47,-48.8 1698.47,-84.8"/>
<text text-anchor="middle" x="1617" y="-62.6" font-family="Times,serif" font-size="14.00">MemberDetailComponent</text>
</g>
<!-- MemberDetailComponent&#45;&gt;AppModule -->
<g id="edge4" class="edge">
<title>MemberDetailComponent&#45;&gt;AppModule</title>
<path fill="none" stroke="black" d="M1617,-85.02C1617,-103.63 1617,-129.8 1617,-129.8 1617,-129.8 1124.78,-129.8 1124.78,-129.8"/>
<polygon fill="black" stroke="black" points="1124.78,-126.3 1114.78,-129.8 1124.78,-133.3 1124.78,-126.3"/>
</g>
<!-- MemberListComponent -->
<g id="node5" class="node">
<title>MemberListComponent</title>
<polygon fill="#ffffb3" stroke="black" points="1517.04,-84.8 1366.96,-84.8 1366.96,-48.8 1517.04,-48.8 1517.04,-84.8"/>
<text text-anchor="middle" x="1442" y="-62.6" font-family="Times,serif" font-size="14.00">MemberListComponent</text>
</g>
<!-- MemberListComponent&#45;&gt;AppModule -->
<g id="edge5" class="edge">
<title>MemberListComponent&#45;&gt;AppModule</title>
<path fill="none" stroke="black" d="M1442,-84.83C1442,-101.86 1442,-124.8 1442,-124.8 1442,-124.8 1124.97,-124.8 1124.97,-124.8"/>
<polygon fill="black" stroke="black" points="1124.97,-121.3 1114.97,-124.8 1124.97,-128.3 1124.97,-121.3"/>
</g>
<!-- MessagesComponent -->
<g id="node6" class="node">
<title>MessagesComponent</title>
<polygon fill="#ffffb3" stroke="black" points="1348.77,-84.8 1213.23,-84.8 1213.23,-48.8 1348.77,-48.8 1348.77,-84.8"/>
<text text-anchor="middle" x="1281" y="-62.6" font-family="Times,serif" font-size="14.00">MessagesComponent</text>
</g>
<!-- MessagesComponent&#45;&gt;AppModule -->
<g id="edge6" class="edge">
<title>MessagesComponent&#45;&gt;AppModule</title>
<path fill="none" stroke="black" d="M1281,-85.04C1281,-100.37 1281,-119.8 1281,-119.8 1281,-119.8 1125.09,-119.8 1125.09,-119.8"/>
<polygon fill="black" stroke="black" points="1125.09,-116.3 1115.09,-119.8 1125.09,-123.3 1125.09,-116.3"/>
</g>
<!-- NavComponent -->
<g id="node7" class="node">
<title>NavComponent</title>
<polygon fill="#ffffb3" stroke="black" points="1195.16,-84.8 1090.84,-84.8 1090.84,-48.8 1195.16,-48.8 1195.16,-84.8"/>
<text text-anchor="middle" x="1143" y="-62.6" font-family="Times,serif" font-size="14.00">NavComponent</text>
</g>
<!-- NavComponent&#45;&gt;AppModule -->
<g id="edge7" class="edge">
<title>NavComponent&#45;&gt;AppModule</title>
<path fill="none" stroke="black" d="M1102.75,-84.91C1102.75,-84.91 1102.75,-103.79 1102.75,-103.79"/>
<polygon fill="black" stroke="black" points="1099.25,-103.79 1102.75,-113.79 1106.25,-103.79 1099.25,-103.79"/>
</g>
<!-- NotFoundComponent -->
<g id="node8" class="node">
<title>NotFoundComponent</title>
<polygon fill="#ffffb3" stroke="black" points="1073.12,-84.8 934.88,-84.8 934.88,-48.8 1073.12,-48.8 1073.12,-84.8"/>
<text text-anchor="middle" x="1004" y="-62.6" font-family="Times,serif" font-size="14.00">NotFoundComponent</text>
</g>
<!-- NotFoundComponent&#45;&gt;AppModule -->
<g id="edge8" class="edge">
<title>NotFoundComponent&#45;&gt;AppModule</title>
<path fill="none" stroke="black" d="M1052.11,-84.91C1052.11,-84.91 1052.11,-103.79 1052.11,-103.79"/>
<polygon fill="black" stroke="black" points="1048.61,-103.79 1052.11,-113.79 1055.61,-103.79 1048.61,-103.79"/>
</g>
<!-- RegisterComponent -->
<g id="node9" class="node">
<title>RegisterComponent</title>
<polygon fill="#ffffb3" stroke="black" points="916.99,-84.8 789.01,-84.8 789.01,-48.8 916.99,-48.8 916.99,-84.8"/>
<text text-anchor="middle" x="853" y="-62.6" font-family="Times,serif" font-size="14.00">RegisterComponent</text>
</g>
<!-- RegisterComponent&#45;&gt;AppModule -->
<g id="edge9" class="edge">
<title>RegisterComponent&#45;&gt;AppModule</title>
<path fill="none" stroke="black" d="M853,-85.04C853,-100.37 853,-119.8 853,-119.8 853,-119.8 1021.1,-119.8 1021.1,-119.8"/>
<polygon fill="black" stroke="black" points="1021.1,-123.3 1031.1,-119.8 1021.1,-116.3 1021.1,-123.3"/>
</g>
<!-- ServerErrorComponent -->
<g id="node10" class="node">
<title>ServerErrorComponent</title>
<polygon fill="#ffffb3" stroke="black" points="770.91,-84.8 623.09,-84.8 623.09,-48.8 770.91,-48.8 770.91,-84.8"/>
<text text-anchor="middle" x="697" y="-62.6" font-family="Times,serif" font-size="14.00">ServerErrorComponent</text>
</g>
<!-- ServerErrorComponent&#45;&gt;AppModule -->
<g id="edge10" class="edge">
<title>ServerErrorComponent&#45;&gt;AppModule</title>
<path fill="none" stroke="black" d="M697,-84.83C697,-101.86 697,-124.8 697,-124.8 697,-124.8 1021.32,-124.8 1021.32,-124.8"/>
<polygon fill="black" stroke="black" points="1021.32,-128.3 1031.32,-124.8 1021.32,-121.3 1021.32,-128.3"/>
</g>
<!-- TestErrorsComponent -->
<g id="node11" class="node">
<title>TestErrorsComponent</title>
<polygon fill="#ffffb3" stroke="black" points="605.42,-84.8 464.58,-84.8 464.58,-48.8 605.42,-48.8 605.42,-84.8"/>
<text text-anchor="middle" x="535" y="-62.6" font-family="Times,serif" font-size="14.00">TestErrorsComponent</text>
</g>
<!-- TestErrorsComponent&#45;&gt;AppModule -->
<g id="edge11" class="edge">
<title>TestErrorsComponent&#45;&gt;AppModule</title>
<path fill="none" stroke="black" d="M535,-85.02C535,-103.63 535,-129.8 535,-129.8 535,-129.8 1021.23,-129.8 1021.23,-129.8"/>
<polygon fill="black" stroke="black" points="1021.23,-133.3 1031.23,-129.8 1021.23,-126.3 1021.23,-133.3"/>
</g>
<!-- AppComponent  -->
<g id="node15" class="node">
<title>AppComponent </title>
<polygon fill="#80b1d3" stroke="black" points="1127.44,-214.8 1018.56,-214.8 1018.56,-178.8 1127.44,-178.8 1127.44,-214.8"/>
<text text-anchor="middle" x="1073" y="-192.6" font-family="Times,serif" font-size="14.00">AppComponent </text>
</g>
<!-- AppModule&#45;&gt;AppComponent  -->
<g id="edge14" class="edge">
<title>AppModule&#45;&gt;AppComponent </title>
<path fill="none" stroke="black" stroke-dasharray="1,5" d="M1073,-149.91C1073,-149.91 1073,-168.79 1073,-168.79"/>
<polygon fill="black" stroke="black" points="1069.5,-168.79 1073,-178.79 1076.5,-168.79 1069.5,-168.79"/>
</g>
<!-- AppRoutingModule -->
<g id="node13" class="node">
<title>AppRoutingModule</title>
<polygon fill="#8dd3c7" stroke="black" points="441.28,-84.8 438.28,-88.8 417.28,-88.8 414.28,-84.8 312.72,-84.8 312.72,-48.8 441.28,-48.8 441.28,-84.8"/>
<text text-anchor="middle" x="377" y="-62.6" font-family="Times,serif" font-size="14.00">AppRoutingModule</text>
</g>
<!-- AppRoutingModule&#45;&gt;AppModule -->
<g id="edge12" class="edge">
<title>AppRoutingModule&#45;&gt;AppModule</title>
<path fill="none" stroke="black" d="M377,-85.02C377,-105.17 377,-134.8 377,-134.8 377,-134.8 1021.29,-134.8 1021.29,-134.8"/>
<polygon fill="black" stroke="black" points="1021.29,-138.3 1031.29,-134.8 1021.29,-131.3 1021.29,-138.3"/>
</g>
<!-- SharedModule -->
<g id="node14" class="node">
<title>SharedModule</title>
<polygon fill="#8dd3c7" stroke="black" points="294.43,-84.8 291.43,-88.8 270.43,-88.8 267.43,-84.8 195.57,-84.8 195.57,-48.8 294.43,-48.8 294.43,-84.8"/>
<text text-anchor="middle" x="245" y="-62.6" font-family="Times,serif" font-size="14.00">SharedModule</text>
</g>
<!-- SharedModule&#45;&gt;AppModule -->
<g id="edge13" class="edge">
<title>SharedModule&#45;&gt;AppModule</title>
<path fill="none" stroke="black" d="M245,-84.84C245,-106.46 245,-139.8 245,-139.8 245,-139.8 1021.09,-139.8 1021.09,-139.8"/>
<polygon fill="black" stroke="black" points="1021.09,-143.3 1031.09,-139.8 1021.09,-136.3 1021.09,-143.3"/>
</g>
<!-- ErrorInterceptor -->
<g id="node16" class="node">
<title>ErrorInterceptor</title>
<ellipse fill="#fdb462" stroke="black" cx="98" cy="-66.8" rx="73.54" ry="18"/>
<text text-anchor="middle" x="98" y="-62.6" font-family="Times,serif" font-size="14.00">ErrorInterceptor</text>
</g>
<!-- ErrorInterceptor&#45;&gt;AppModule -->
<g id="edge15" class="edge">
<title>ErrorInterceptor&#45;&gt;AppModule</title>
<path fill="none" stroke="black" d="M98,-84.89C98,-107.93 98,-144.8 98,-144.8 98,-144.8 1021.11,-144.8 1021.11,-144.8"/>
<polygon fill="black" stroke="black" points="1021.11,-148.3 1031.11,-144.8 1021.11,-141.3 1021.11,-148.3"/>
</g>
</g>
</svg>
