<?xml version="1.0" encoding="UTF-8" standalone="no"?>
<!DOCTYPE svg PUBLIC "-//W3C//DTD SVG 1.1//EN"
 "http://www.w3.org/Graphics/SVG/1.1/DTD/svg11.dtd">
<!-- Generated by graphviz version 5.0.0 (20220707.1540)
 -->
<!-- Title: dependencies Pages: 1 -->
<svg width="1462pt" height="247pt"
 viewBox="0.00 0.00 1462.00 246.80" xmlns="http://www.w3.org/2000/svg" xmlns:xlink="http://www.w3.org/1999/xlink">
<g id="graph0" class="graph" transform="scale(1 1) rotate(0) translate(4 242.8)">
<title>dependencies</title>
<polygon fill="white" stroke="transparent" points="-4,4 -4,-242.8 1458,-242.8 1458,4 -4,4"/>
<text text-anchor="middle" x="727" y="-8.2" font-family="sans-serif" font-size="14.00">dependencies</text>
<g id="clust1" class="cluster">
<title>cluster_AppModule</title>
<polygon fill="none" stroke="black" stroke-dasharray="1,5" points="8,-32.8 8,-230.8 1446,-230.8 1446,-32.8 8,-32.8"/>
</g>
<g id="clust2" class="cluster">
<title>cluster_AppModule_declarations</title>
<polygon fill="none" stroke="black" points="285,-40.8 285,-92.8 1438,-92.8 1438,-40.8 285,-40.8"/>
</g>
<g id="clust11" class="cluster">
<title>cluster_AppModule_imports</title>
<polygon fill="none" stroke="black" points="16,-40.8 16,-92.8 277,-92.8 277,-40.8 16,-40.8"/>
</g>
<g id="clust13" class="cluster">
<title>cluster_AppModule_bootstrap</title>
<polygon fill="none" stroke="black" points="647,-170.8 647,-222.8 771,-222.8 771,-170.8 647,-170.8"/>
</g>
<!-- AppComponent -->
<g id="node1" class="node">
<title>AppComponent</title>
<polygon fill="#ffffb3" stroke="black" points="1429.94,-84.8 1324.06,-84.8 1324.06,-48.8 1429.94,-48.8 1429.94,-84.8"/>
<text text-anchor="middle" x="1377" y="-62.6" font-family="Times,serif" font-size="14.00">AppComponent</text>
</g>
<!-- AppModule -->
<g id="node9" class="node">
<title>AppModule</title>
<polygon fill="#8dd3c7" stroke="black" points="750.66,-149.8 747.66,-153.8 726.66,-153.8 723.66,-149.8 667.34,-149.8 667.34,-113.8 750.66,-113.8 750.66,-149.8"/>
<text text-anchor="middle" x="709" y="-127.6" font-family="Times,serif" font-size="14.00">AppModule</text>
</g>
<!-- AppComponent&#45;&gt;AppModule -->
<g id="edge1" class="edge">
<title>AppComponent&#45;&gt;AppModule</title>
<path fill="none" stroke="black" d="M1377,-84.81C1377,-107.29 1377,-142.8 1377,-142.8 1377,-142.8 760.79,-142.8 760.79,-142.8"/>
<polygon fill="black" stroke="black" points="760.79,-139.3 750.79,-142.8 760.79,-146.3 760.79,-139.3"/>
</g>
<!-- HomeComponent -->
<g id="node2" class="node">
<title>HomeComponent</title>
<polygon fill="#ffffb3" stroke="black" points="1306.55,-84.8 1191.45,-84.8 1191.45,-48.8 1306.55,-48.8 1306.55,-84.8"/>
<text text-anchor="middle" x="1249" y="-62.6" font-family="Times,serif" font-size="14.00">HomeComponent</text>
</g>
<!-- HomeComponent&#45;&gt;AppModule -->
<g id="edge2" class="edge">
<title>HomeComponent&#45;&gt;AppModule</title>
<path fill="none" stroke="black" d="M1249,-84.93C1249,-105.37 1249,-135.8 1249,-135.8 1249,-135.8 760.92,-135.8 760.92,-135.8"/>
<polygon fill="black" stroke="black" points="760.92,-132.3 750.92,-135.8 760.92,-139.3 760.92,-132.3"/>
</g>
<!-- ListsComponent -->
<g id="node3" class="node">
<title>ListsComponent</title>
<polygon fill="#ffffb3" stroke="black" points="1173.06,-84.8 1064.94,-84.8 1064.94,-48.8 1173.06,-48.8 1173.06,-84.8"/>
<text text-anchor="middle" x="1119" y="-62.6" font-family="Times,serif" font-size="14.00">ListsComponent</text>
</g>
<!-- ListsComponent&#45;&gt;AppModule -->
<g id="edge3" class="edge">
<title>ListsComponent&#45;&gt;AppModule</title>
<path fill="none" stroke="black" d="M1119,-85.07C1119,-103.36 1119,-128.8 1119,-128.8 1119,-128.8 760.95,-128.8 760.95,-128.8"/>
<polygon fill="black" stroke="black" points="760.95,-125.3 750.95,-128.8 760.95,-132.3 760.95,-125.3"/>
</g>
<!-- MemberDetailComponent -->
<g id="node4" class="node">
<title>MemberDetailComponent</title>
<polygon fill="#ffffb3" stroke="black" points="1046.47,-84.8 883.53,-84.8 883.53,-48.8 1046.47,-48.8 1046.47,-84.8"/>
<text text-anchor="middle" x="965" y="-62.6" font-family="Times,serif" font-size="14.00">MemberDetailComponent</text>
</g>
<!-- MemberDetailComponent&#45;&gt;AppModule -->
<g id="edge4" class="edge">
<title>MemberDetailComponent&#45;&gt;AppModule</title>
<path fill="none" stroke="black" d="M965,-84.81C965,-100.85 965,-121.8 965,-121.8 965,-121.8 760.7,-121.8 760.7,-121.8"/>
<polygon fill="black" stroke="black" points="760.7,-118.3 750.7,-121.8 760.7,-125.3 760.7,-118.3"/>
</g>
<!-- MemberListComponent -->
<g id="node5" class="node">
<title>MemberListComponent</title>
<polygon fill="#ffffb3" stroke="black" points="865.04,-84.8 714.96,-84.8 714.96,-48.8 865.04,-48.8 865.04,-84.8"/>
<text text-anchor="middle" x="790" y="-62.6" font-family="Times,serif" font-size="14.00">MemberListComponent</text>
</g>
<!-- MemberListComponent&#45;&gt;AppModule -->
<g id="edge5" class="edge">
<title>MemberListComponent&#45;&gt;AppModule</title>
<path fill="none" stroke="black" d="M732.78,-84.91C732.78,-84.91 732.78,-103.79 732.78,-103.79"/>
<polygon fill="black" stroke="black" points="729.28,-103.79 732.78,-113.79 736.28,-103.79 729.28,-103.79"/>
</g>
<!-- MessagesComponent -->
<g id="node6" class="node">
<title>MessagesComponent</title>
<polygon fill="#ffffb3" stroke="black" points="696.77,-84.8 561.23,-84.8 561.23,-48.8 696.77,-48.8 696.77,-84.8"/>
<text text-anchor="middle" x="629" y="-62.6" font-family="Times,serif" font-size="14.00">MessagesComponent</text>
</g>
<!-- MessagesComponent&#45;&gt;AppModule -->
<g id="edge6" class="edge">
<title>MessagesComponent&#45;&gt;AppModule</title>
<path fill="none" stroke="black" d="M682.03,-84.91C682.03,-84.91 682.03,-103.79 682.03,-103.79"/>
<polygon fill="black" stroke="black" points="678.53,-103.79 682.03,-113.79 685.53,-103.79 678.53,-103.79"/>
</g>
<!-- NavComponent -->
<g id="node7" class="node">
<title>NavComponent</title>
<polygon fill="#ffffb3" stroke="black" points="543.16,-84.8 438.84,-84.8 438.84,-48.8 543.16,-48.8 543.16,-84.8"/>
<text text-anchor="middle" x="491" y="-62.6" font-family="Times,serif" font-size="14.00">NavComponent</text>
</g>
<!-- NavComponent&#45;&gt;AppModule -->
<g id="edge7" class="edge">
<title>NavComponent&#45;&gt;AppModule</title>
<path fill="none" stroke="black" d="M491,-84.81C491,-100.85 491,-121.8 491,-121.8 491,-121.8 657.23,-121.8 657.23,-121.8"/>
<polygon fill="black" stroke="black" points="657.23,-125.3 667.23,-121.8 657.23,-118.3 657.23,-125.3"/>
</g>
<!-- RegisterComponent -->
<g id="node8" class="node">
<title>RegisterComponent</title>
<polygon fill="#ffffb3" stroke="black" points="420.99,-84.8 293.01,-84.8 293.01,-48.8 420.99,-48.8 420.99,-84.8"/>
<text text-anchor="middle" x="357" y="-62.6" font-family="Times,serif" font-size="14.00">RegisterComponent</text>
</g>
<!-- RegisterComponent&#45;&gt;AppModule -->
<g id="edge8" class="edge">
<title>RegisterComponent&#45;&gt;AppModule</title>
<path fill="none" stroke="black" d="M357,-85.07C357,-103.36 357,-128.8 357,-128.8 357,-128.8 657.24,-128.8 657.24,-128.8"/>
<polygon fill="black" stroke="black" points="657.24,-132.3 667.24,-128.8 657.24,-125.3 657.24,-132.3"/>
</g>
<!-- AppComponent  -->
<g id="node12" class="node">
<title>AppComponent </title>
<polygon fill="#80b1d3" stroke="black" points="763.44,-214.8 654.56,-214.8 654.56,-178.8 763.44,-178.8 763.44,-214.8"/>
<text text-anchor="middle" x="709" y="-192.6" font-family="Times,serif" font-size="14.00">AppComponent </text>
</g>
<!-- AppModule&#45;&gt;AppComponent  -->
<g id="edge11" class="edge">
<title>AppModule&#45;&gt;AppComponent </title>
<path fill="none" stroke="black" stroke-dasharray="1,5" d="M709,-149.91C709,-149.91 709,-168.79 709,-168.79"/>
<polygon fill="black" stroke="black" points="705.5,-168.79 709,-178.79 712.5,-168.79 705.5,-168.79"/>
</g>
<!-- AppRoutingModule -->
<g id="node10" class="node">
<title>AppRoutingModule</title>
<polygon fill="#8dd3c7" stroke="black" points="269.28,-84.8 266.28,-88.8 245.28,-88.8 242.28,-84.8 140.72,-84.8 140.72,-48.8 269.28,-48.8 269.28,-84.8"/>
<text text-anchor="middle" x="205" y="-62.6" font-family="Times,serif" font-size="14.00">AppRoutingModule</text>
</g>
<!-- AppRoutingModule&#45;&gt;AppModule -->
<g id="edge9" class="edge">
<title>AppRoutingModule&#45;&gt;AppModule</title>
<path fill="none" stroke="black" d="M205,-84.93C205,-105.37 205,-135.8 205,-135.8 205,-135.8 657.33,-135.8 657.33,-135.8"/>
<polygon fill="black" stroke="black" points="657.33,-139.3 667.33,-135.8 657.33,-132.3 657.33,-139.3"/>
</g>
<!-- SharedModule -->
<g id="node11" class="node">
<title>SharedModule</title>
<polygon fill="#8dd3c7" stroke="black" points="122.43,-84.8 119.43,-88.8 98.43,-88.8 95.43,-84.8 23.57,-84.8 23.57,-48.8 122.43,-48.8 122.43,-84.8"/>
<text text-anchor="middle" x="73" y="-62.6" font-family="Times,serif" font-size="14.00">SharedModule</text>
</g>
<!-- SharedModule&#45;&gt;AppModule -->
<g id="edge10" class="edge">
<title>SharedModule&#45;&gt;AppModule</title>
<path fill="none" stroke="black" d="M73,-84.81C73,-107.29 73,-142.8 73,-142.8 73,-142.8 657.27,-142.8 657.27,-142.8"/>
<polygon fill="black" stroke="black" points="657.27,-146.3 667.27,-142.8 657.27,-139.3 657.27,-146.3"/>
</g>
</g>
</svg>
